<svg xmlns="http://www.w3.org/2000/svg" width="50" height="50" viewBox="0 0 82 82">
  <g id="Grupo_1312" data-name="Grupo 1312" transform="translate(-420 -2234)">
    <circle id="Elipse_6" data-name="Elipse 6" cx="41" cy="41" r="41" transform="translate(420 2234)" fill="#f8faff"/>
    <g id="Grupo_83" data-name="Grupo 83" transform="translate(1186.73 2267.914)">
      <path id="Caminho_1533" data-name="Caminho 1533" d="M-711.877,2.065a18.415,18.415,0,0,1,.09,3.015c.019.969.009,1.939,0,2.908,0,.248.019.356.327.282a2.09,2.09,0,0,1,1.78.384.282.282,0,0,0,.4.009,2.259,2.259,0,0,1,3.458.972c.094.206.167.254.4.2a2.285,2.285,0,0,1,2.874,2.34c0,1.654-.006,3.308,0,4.961a8.532,8.532,0,0,1-2.036,5.667.827.827,0,0,0-.215.654c.252,2.954.486,5.909.746,8.862.035.4-.024.53-.467.529q-6.522-.028-13.045,0c-.369,0-.443-.1-.412-.454.26-2.982.5-5.965.753-8.947a.77.77,0,0,0-.2-.616,8.568,8.568,0,0,1-2.061-5.7c.007-1.868,0-3.735,0-5.6A1.59,1.59,0,0,1-717.434,9.8a6.536,6.536,0,0,1,1.009.333c.008-.173.021-.32.021-.468q0-3.293,0-6.587a4.216,4.216,0,0,1,.016-.512c.062-.507.067-.507-.468-.507-1.369,0-2.737.008-4.106-.007a.474.474,0,0,0-.512.325c-.258.57-.56,1.121-.831,1.686a1.688,1.688,0,0,1-1.526,1.062c-.3.011-.261.182-.261.365q0,4.32,0,8.64c0,2.352,0,4.7,0,7.057a2.3,2.3,0,0,1-2.43,2.411q-6.373.008-12.746-.007c-.369,0-.519.1-.528.464a1.513,1.513,0,0,1-.1.5,4.384,4.384,0,0,0,.045,2.874c.492,1.768.9,3.558,1.349,5.341-.135.114-.28.064-.412.064-3.707,0-7.413,0-11.12.013-.4,0-.424-.1-.336-.441.522-2.027,1.019-4.061,1.539-6.089a2.093,2.093,0,0,0,.023-.925c-.453-2.48-1.012-4.946-1.3-7.45a16.993,16.993,0,0,1,3.788-13.012,2.884,2.884,0,0,0,.715-1.984c-.043-3.535-.017-7.071-.015-10.607a2.328,2.328,0,0,1,2.586-2.592q8.169,0,16.338,0c.142,0,.286,0,.427.011.635.059.635.061.635-.6,0-.542-.007-1.084,0-1.625a2.308,2.308,0,0,1,2.4-2.4q9.131-.01,18.263,0a2.3,2.3,0,0,1,2.414,2.428q.005,6.052,0,12.1a2.293,2.293,0,0,1-2.4,2.4c-2.153.006-4.306,0-6.458,0ZM-714.1-13.317q-4.51,0-9.021,0c-.7,0-.96.267-.962.954,0,1,0,2,0,2.993q0,6.263,0,12.527c0,.145-.068.346.144.4s.247-.157.312-.286c.392-.775.791-1.546,1.154-2.334a.634.634,0,0,1,.68-.418q8.337.017,16.674.007c.776,0,1.03-.253,1.03-1.023q0-5.857,0-11.714c0-.89-.216-1.1-1.118-1.1Q-709.658-13.319-714.1-13.317Zm.781,21.823q0-1.411,0-2.822c0-.927.009-1.853,0-2.78a.759.759,0,0,0-1.062-.77c-.407.179-.469.531-.469.923q0,5.067,0,10.135c0,1.247.008,1.239-1.245,1.187-.249-.01-.315-.092-.307-.326.015-.427.014-.855,0-1.283a1.532,1.532,0,0,0-1.068-1.4c-.3-.1-.47-.1-.465.311.019,1.881.005,3.763.016,5.645a6.963,6.963,0,0,0,1.611,4.451.67.67,0,0,0,.569.3q4.725-.017,9.451,0a.632.632,0,0,0,.545-.257,6.519,6.519,0,0,0,1.5-3.124,47.593,47.593,0,0,0,.136-6.7.709.709,0,0,0-.742-.681.745.745,0,0,0-.762.713c-.026.412-.007.826-.007,1.24,0,1.132,0,1.116-1.128,1.131-.356,0-.425-.115-.42-.441.019-1.112.016-2.224,0-3.335a.758.758,0,0,0-.976-.811.784.784,0,0,0-.559.857c0,1.126-.007,2.252.005,3.378,0,.258-.068.362-.336.343a5.828,5.828,0,0,0-.855,0c-.289.022-.361-.093-.358-.367.013-1.112.01-2.224,0-3.336,0-.561-.293-.9-.751-.908-.477-.01-.772.333-.777.921-.007.855-.005,1.711-.006,2.566,0,1.13,0,1.113-1.136,1.129-.366.005-.413-.133-.411-.445C-713.318,12.126-713.324,10.316-713.324,8.506Zm-21.52-11.057c-2.95,0-5.9.005-8.851-.007-.321,0-.411.084-.407.406.017,1.482.008,2.964.008,4.447q0,3.549,0,7.1c0,.186-.064.381.243.452a2.615,2.615,0,0,1,1.8,1.509q.466.96.938,1.918c.069.141.119.321.317.1a7,7,0,0,1,2.858-1.889c.313-.113.279-.442.364-.682.073-.206-.173-.225-.293-.3a6.092,6.092,0,0,1-3.149-5.423c-.019-1.454-.006-2.908,0-4.361a1.57,1.57,0,0,1,1.749-1.74q4.4,0,8.808,0A1.565,1.565,0,0,1-728.706.716c0,1.268,0,2.537,0,3.805a8.845,8.845,0,0,1-.082,1.62,6.152,6.152,0,0,1-3.105,4.383c-.111.065-.317.087-.258.281.092.3.121.609.522.754a6.834,6.834,0,0,1,3.743,3.27c.194.353.225.887.559,1.04.354.162.841.013,1.265.05.378.033.434-.118.433-.456q-.015-8.787,0-17.574c0-.359-.1-.449-.452-.447C-729-2.546-731.922-2.552-734.844-2.552Zm-10.778,9.238a.4.4,0,0,0-.263.222,15.618,15.618,0,0,0-2.649,11.25c.308,2.226.78,4.43,1.169,6.645.045.255.143.349.415.347q2.5-.022,5,0c.267,0,.354-.088.418-.344a16.961,16.961,0,0,0-2.007-12.955,1.089,1.089,0,0,0-1.63-.32,1.172,1.172,0,0,0-.31,1.5c.54,1.27,1.094,2.535,1.633,3.806.149.351.491.736.37,1.052-.111.289-.636.3-.955.484-.279.158-.4.1-.529-.2-.623-1.5-1.266-2.988-1.911-4.476a2.666,2.666,0,0,1,1.041-3.567.356.356,0,0,0,.209-.33C-745.626,8.774-745.622,7.751-745.622,6.686Zm34.6,24.6v0c1.611,0,3.223-.015,4.833.01.409.006.5-.112.462-.5q-.311-3.45-.579-6.9c-.021-.263-.142-.288-.356-.288q-4.341.008-8.683,0c-.248,0-.353.059-.374.323q-.282,3.5-.591,6.989c-.028.311.071.382.369.38C-714.3,31.28-712.663,31.287-711.024,31.287ZM-734.847-4.1c2.937,0,5.873,0,8.81.007.308,0,.418-.061.411-.395-.023-1.054-.006-2.11-.011-3.164,0-.831-.235-1.058-1.074-1.058l-16.422,0c-.682,0-.955.274-.957.96,0,1.069.012,2.139-.013,3.207-.008.357.092.45.447.448C-740.72-4.1-737.783-4.1-734.847-4.1ZM-734.86.53c-1.4,0-2.794.009-4.191-.007-.325,0-.443.068-.437.422.024,1.34.006,2.68.017,4.02a5.934,5.934,0,0,0,.087,1.064,4.637,4.637,0,0,0,4.974,3.707,4.607,4.607,0,0,0,4.149-4.513c.018-1.44,0-2.88.015-4.319,0-.3-.081-.384-.381-.381C-732.038.538-733.449.53-734.86.53Zm2.2,16.92v0c-2.238,0-4.475.006-6.713-.007-.333,0-.4.072-.341.408a16.293,16.293,0,0,1,.205,3.833c-.016.288.041.389.357.388,4.19-.01,8.38,0,12.57-.005.686,0,.947-.267.949-.966,0-1.083-.011-2.167.009-3.249.006-.323-.091-.407-.409-.4C-728.245,17.456-730.454,17.45-732.664,17.45Zm-11.817,13.835c1.211,0,2.423-.012,3.634.007.336.005.366-.113.294-.39-.337-1.309-.672-2.619-.987-3.934-.055-.229-.144-.293-.368-.292q-2.565.012-5.13,0a.312.312,0,0,0-.37.29q-.478,1.99-1,3.971c-.081.308.008.355.289.352C-746.9,31.278-745.692,31.285-744.481,31.285Zm15.352-15.375a5.134,5.134,0,0,0-2.376-2.612c-.764-.423-.764-.423-1.388.2-.041.04-.08.081-.122.12a2.627,2.627,0,0,1-3.7-.012c-.165-.158-.334-.313-.482-.485a.343.343,0,0,0-.449-.089,5.612,5.612,0,0,0-2.548,2.073c-.173.252-.052.465.021.686s.267.118.407.118q3.934.009,7.869,0Zm-6.615-4.686c-.156-.021-.331-.071-.382.148s-.263.434.008.659c.174.145.32.324.489.476a1.087,1.087,0,0,0,1.539,0c.18-.161.34-.344.517-.508.254-.237,0-.442-.038-.657s-.224-.128-.348-.112A5.83,5.83,0,0,1-735.744,11.223Z" transform="translate(0 0)" fill="#1d156d"/>
      <path id="Caminho_1534" data-name="Caminho 1534" d="M-370.965,26.317c0-1.154-.017-2.309,0-3.463a1.966,1.966,0,0,1,2.828-1.753c.576.337,1.139.7,1.705,1.05,1.232.77,2.44,1.579,3.7,2.3a2.151,2.151,0,0,1,.122,3.566c-1.8,1.151-3.6,2.3-5.436,3.393a1.945,1.945,0,0,1-2.918-1.72C-370.976,28.569-370.965,27.443-370.965,26.317Z" transform="translate(-346.977 -32.686)" fill="#ff2847"/>
      <path id="Caminho_1535" data-name="Caminho 1535" d="M-619.782,76.577c-.926,0-1.853-.007-2.779,0-.236,0-.315-.065-.323-.312-.04-1.238-.048-1.238,1.194-1.238,1.525,0,3.05.01,4.575-.008.328,0,.431.089.4.407-.04.365.149.84-.073,1.072s-.7.065-1.066.072C-618.5,76.586-619.141,76.577-619.782,76.577Z" transform="translate(-116.605 -82.205)" fill="#1d156d"/>
      <path id="Caminho_1536" data-name="Caminho 1536" d="M-531.134,75.924c0,.743,0,.743-.754.743-.778,0-.778,0-.778-.776s0-.77.789-.77C-531.134,75.122-531.134,75.122-531.134,75.924Z" transform="translate(-199.116 -82.295)" fill="#1d156d"/>
      <path id="Caminho_1537" data-name="Caminho 1537" d="M-590.074,233.531a2.738,2.738,0,0,1-1.909-.791c-.149-.148-.2-.261-.011-.411a4.08,4.08,0,0,0,.3-.3c.172-.17.317-.4.524-.494.242-.108.342.229.544.315a1.046,1.046,0,0,0,1.231-.161c.245-.24.38-.188.572.037a5.93,5.93,0,0,0,.606.6c.175.154.145.26-.009.411A2.723,2.723,0,0,1-590.074,233.531Z" transform="translate(-144.751 -225.308)" fill="#1d156d"/>
      <path id="Caminho_1538" data-name="Caminho 1538" d="M-559.843,186.439c.009.159-.1.189-.181.24-.613.414-1.231.82-1.843,1.236-.156.106-.243.114-.374-.058-.784-1.035-.789-1.03.286-1.744.356-.236.715-.467,1.061-.716.175-.126.285-.131.407.068C-560.28,185.8-560.05,186.129-559.843,186.439Z" transform="translate(-163.151 162.742) rotate(34)" fill="#1d156d"/>
      <path id="Caminho_1539" data-name="Caminho 1539" d="M-605.747,186.89c-.1.146-.2.311-.312.476-.491.743-.49.742-1.225.249-.437-.293-.874-.587-1.319-.867-.192-.121-.263-.226-.1-.434a9.514,9.514,0,0,0,.552-.812c.1-.165.187-.211.365-.088.62.43,1.25.843,1.875,1.266C-605.848,186.725-605.759,186.758-605.747,186.89Z" transform="matrix(0.839, -0.545, 0.545, 0.839, -329.128, -483.719)" fill="#1d156d"/>
      <path id="Caminho_1540" data-name="Caminho 1540" d="M-601.811,380.419c.9,0,1.795.008,2.691-.005.256,0,.338.062.342.331.018,1.21.027,1.209-1.183,1.21-1.524,0-3.048,0-4.571.011-.3,0-.452-.052-.42-.393.034-.367-.114-.851.071-1.076s.7-.065,1.062-.078c.341-.012.683,0,1.025,0h.983Z" transform="translate(-132.992 -361.429)" fill="#1d156d"/>
    </g>
  </g>
</svg>
