<svg xmlns="http://www.w3.org/2000/svg" width="82" height="82" viewBox="0 0 82 82">
    <circle id="Elipse_7" data-name="Elipse 7" cx="41" cy="41" r="41" fill="#f8faff"/>
    <g id="Grupo_84" data-name="Grupo 84" transform="translate(1574.328 -78.764)">
      <path id="Caminho_1541" data-name="Caminho 1541" d="M-1545.67,144.795c-3.045,0-6.09-.008-9.134.01-.4,0-.462-.1-.411-.476q1.041-7.658,2.053-15.319c.243-1.821.518-3.639.712-5.466.1-.938.308-1.857.386-2.8a.7.7,0,0,0-.1-.512,7.645,7.645,0,0,1-1.414-4.987c.019-.406.14-.906-.046-1.2-.206-.322-.743-.084-1.134-.128a3.976,3.976,0,0,1-3.548-3.828c-.026-1.145-.023-2.291,0-3.436a3.934,3.934,0,0,1,3.617-3.795,2.064,2.064,0,0,1,.451-.013,1.033,1.033,0,0,0,1.149-.581,2.254,2.254,0,0,1,3.222-.582.365.365,0,0,0,.5.008,2.239,2.239,0,0,1,2.663-.007.371.371,0,0,0,.5.008,2.239,2.239,0,0,1,2.663-.009.37.37,0,0,0,.5.01,2.311,2.311,0,0,1,3.432.852.5.5,0,0,0,.527.3c2.1-.007,4.19-.012,6.286,0a.632.632,0,0,0,.728-.487,10.118,10.118,0,0,1,1.8-2.81,11.123,11.123,0,0,1,3.2-2.546,11.011,11.011,0,0,1,5.084-1.28,14.874,14.874,0,0,1,5.35.635,11.161,11.161,0,0,1,3.83,18.646,8.806,8.806,0,0,0-2.02,2.291,6.322,6.322,0,0,0-.75,3.264c.016.376-.06.51-.481.508-3.391-.02-6.783-.015-10.174,0-.32,0-.447-.052-.434-.411a6.274,6.274,0,0,0-2.405-5.309,7.831,7.831,0,0,1-1.113-1.122.737.737,0,0,0-.648-.306q-2.464.025-4.929,0c-.315,0-.407.075-.4.394a5.794,5.794,0,0,1-1.448,4.073c-.5.586-.953,1.206-1.444,1.8a.769.769,0,0,0-.19.655c.391,2.881.769,5.764,1.152,8.646q.663,4.995,1.328,9.989c.215,1.613.413,3.229.662,4.837.068.437-.052.487-.44.485C-1539.581,144.788-1542.626,144.795-1545.67,144.795Zm.022-1.574v0c2.442,0,4.884,0,7.326,0,.313,0,.472,0,.411-.424-.421-2.968-.806-5.942-1.2-8.913q-.82-6.183-1.631-12.368c-.045-.346-.143-.468-.519-.466-2.879.019-5.759.01-8.638.01-.621,0-.615,0-.694.608q-.512,3.922-1.03,7.842-.88,6.608-1.779,13.214c-.054.393-.006.511.427.507C-1550.533,143.209-1548.091,143.221-1545.649,143.221Zm28.492-24.455c.106-.066.145-.076.149-.095a8.975,8.975,0,0,1,3.056-4.776,9.541,9.541,0,0,0-3.019-15.958,12.392,12.392,0,0,0-5.394-.6,9.365,9.365,0,0,0-7.912,5.032c-.268.475-.255.466.306.489a3.067,3.067,0,0,1,1.336.1q3.576,1.786,7.152,3.574a1.966,1.966,0,0,1,1,1.117c.3.824,1.012,1.212,1.7,1.706.017-.193.023-.313.038-.431a2.411,2.411,0,0,1,2.559-2.115,2.418,2.418,0,0,1,2.19,2.5,2.421,2.421,0,0,1-2.565,2.259c-.6-.011-.6-.011-.6.6q0,2.42,0,4.839C-1517.157,117.568-1517.157,118.138-1517.157,118.766Zm-34.825-8.724c0,1.945,0,3.89,0,5.834a5.64,5.64,0,0,0,1,3.275.615.615,0,0,0,.579.316q4.794-.015,9.588,0a.6.6,0,0,0,.534-.251c.5-.646.994-1.29,1.519-1.911a4.328,4.328,0,0,0,1.025-3.051c-.008-.25-.062-.334-.323-.329-.8.017-1.6-.017-2.4.016-.387.016-.464-.106-.462-.474.016-3.211.01-6.422.008-9.633,0-.613-.278-.962-.763-.976-.5-.014-.8.351-.8.979,0,1.387,0,2.774,0,4.161,0,.375.128.874-.061,1.095-.223.261-.739.048-1.124.1-.348.043-.423-.094-.42-.427.017-1.583.006-3.166,0-4.749,0-.106,0-.211,0-.317a.784.784,0,0,0-.765-.837.78.78,0,0,0-.8.849c-.008,1.432,0,2.864,0,4.3,0,.375.125.874-.065,1.091-.225.257-.74.045-1.125.093-.359.045-.417-.11-.413-.433.016-1.583.007-3.166.007-4.749,0-.121,0-.242,0-.362a.783.783,0,0,0-.77-.787.769.769,0,0,0-.791.807c-.01,1.432,0,2.864,0,4.3,0,1.287,0,1.279-1.283,1.234-.264-.009-.326-.1-.323-.344.012-.919,0-1.839,0-2.759,0-.754,0-1.508,0-2.261,0-.616-.279-.962-.766-.968-.5-.007-.792.346-.8.984,0,.166,0,.332,0,.5Q-1551.982,107.193-1551.982,110.042Zm17.379,2.3c1.475,0,2.951-.006,4.426.005.266,0,.368-.057.361-.348-.021-.813-.024-1.626,0-2.439.011-.336-.114-.389-.413-.388q-4.359.015-8.718,0c-.287,0-.39.063-.381.371.023.8.029,1.6,0,2.393-.014.36.114.416.434.412C-1537.464,112.338-1536.033,112.347-1534.6,112.347Zm.051-4.751c1.447,0,2.893-.01,4.34.008.323,0,.4-.09.394-.4-.021-.813-.015-1.627,0-2.441,0-.254-.064-.332-.325-.332q-4.43.013-8.86,0c-.261,0-.326.078-.321.329.016.813.03,1.628,0,2.441-.014.364.119.408.433.4C-1537.446,107.587-1536,107.6-1534.552,107.6Zm15.8,7.708q0-1.922,0-3.843c0-.2.009-.366-.243-.463a5.736,5.736,0,0,1-1.671-1.058c-.079-.069-.153-.208-.3-.078a9.194,9.194,0,0,1-2.165,1.2.591.591,0,0,0-.366.628c.013,2.2.008,4.4.011,6.6,0,.374-.127.873.062,1.09.221.255.736.046,1.119.093.326.04.393-.087.391-.4-.014-2.11-.009-4.22-.006-6.33,0-.374-.123-.869.066-1.091.222-.261.736-.045,1.118-.095.347-.045.423.088.42.422-.016,2.095-.012,4.19,0,6.285,0,.387-.168.894.069,1.13s.744.036,1.13.075c.294.03.378-.068.374-.367C-1518.763,117.836-1518.753,116.569-1518.753,115.3Zm-34.826-6.89h0c0-1.206,0-2.412-.006-3.617,0-.122.1-.3-.138-.361a2.5,2.5,0,0,0-3.009,2.259c-.019.451,0,.9,0,1.356,0,.527,0,1.055,0,1.583a2.444,2.444,0,0,0,2.745,2.722c.327,0,.436-.061.428-.414C-1553.6,110.765-1553.579,109.589-1553.579,108.413Zm25.35-3.474v6.907c1.02-.508,2-1,2.981-1.481.175-.086.163-.231.163-.382q0-1.605,0-3.21c0-.135.015-.266-.144-.345C-1526.212,105.945-1527.191,105.455-1528.229,104.939Zm-.273,8.825a8.888,8.888,0,0,1,3.381,4.956v-6.643Zm5.017-6.456c0,.688,0,1.312,0,1.936,0,.192.091.189.226.121.348-.177.705-.338,1.042-.534a.475.475,0,0,0-.011-.888C-1522.614,107.72-1523.023,107.538-1523.484,107.308Zm6.333,2.153c.093.1-.169.4.17.465a1.711,1.711,0,0,0,.851,0,.725.725,0,0,0,.535-.752.723.723,0,0,0-.557-.736.746.746,0,0,0-.872.314A1.075,1.075,0,0,0-1517.151,109.461Z" transform="translate(0 0)" fill="#1d156d"/>
      <path id="Caminho_1542" data-name="Caminho 1542" d="M-1216.39,442.351a11.233,11.233,0,0,0-3.134-3.973c-.272-.235-.756-.386-.785-.693s.429-.528.675-.784a6.927,6.927,0,0,0,1.849-3.456c.12-.58.125-.579-.483-.578-.947,0-.947,0-.947-.965,0-1.145.011-2.291-.007-3.436,0-.3.089-.373.38-.372q5.154.014,10.307,0c.317,0,.4.084.4.4-.017,1.341-.015,2.682,0,4.023,0,.276-.07.38-.353.352-.239-.023-.485.021-.722-.007-.372-.045-.46.093-.392.445a6.8,6.8,0,0,0,1.575,3.252,8.294,8.294,0,0,0,.82.84c.283.243.215.407-.048.576a10.788,10.788,0,0,0-2.561,2.46,7.183,7.183,0,0,0-1.14,1.917l-1.7,0c.071-.2.13-.4.214-.594a12.1,12.1,0,0,1,2.878-3.957c.227-.215.226-.339.036-.579a7.977,7.977,0,0,1-1.693-4.03c-.029-.236-.094-.337-.354-.335q-2.1.018-4.206,0c-.258,0-.327.094-.358.332a8.094,8.094,0,0,1-1.716,4.07c-.168.211-.188.333.03.509a5.806,5.806,0,0,1,.579.571,10.852,10.852,0,0,1,2.543,4.013Zm2.75-11.088v0c.933,0,1.866.006,2.8,0,.358,0,.828.155,1.046-.062.239-.238.036-.716.081-1.084.041-.332-.064-.432-.412-.429-2.107.019-4.214.013-6.321.011-1.222,0-1.207-.006-1.2,1.212,0,.329.13.358.4.356C-1216.047,431.257-1214.843,431.262-1213.639,431.262Z" transform="translate(-307.443 -302.304)" fill="#1d156d"/>
      <path id="Caminho_1543" data-name="Caminho 1543" d="M-1181.672,585.636l1.688,0,.229,0h1.589l.229,0,1.7,0c.345-.045.488.085.458.451s0,.752,0,1.129v1.594c0,.407-.019.813-.009,1.22.006.239-.051.352-.322.351q-2.847-.014-5.695,0c-.271,0-.328-.112-.322-.351.01-.406,0-.813-.009-1.22v-1.594c0-.361.034-.725.006-1.083S-1182.054,585.59-1181.672,585.636Z" transform="translate(-342.161 -445.589)" fill="#ff2847"/>
      <path id="Caminho_1544" data-name="Caminho 1544" d="M-1202.782,393.074c1.688,0,3.377.008,5.065-.007.332,0,.5.046.458.432s.109.86-.078,1.092c-.2.248-.707.076-1.078.076-3.166.007-6.332,0-9.5.011-.322,0-.474-.053-.432-.412a3.626,3.626,0,0,0,0-.813c-.036-.334.105-.391.408-.389,1.719.014,3.437.007,5.156.007Z" transform="translate(-318.32 -270.443)" fill="#1d156d"/>
      <path id="Caminho_1545" data-name="Caminho 1545" d="M-1273.57,588.987a2.4,2.4,0,0,1-2.354,1.573,2.315,2.315,0,0,1-2.211-1.8,2.381,2.381,0,0,1,1.08-2.609,2.383,2.383,0,0,1,2.806.3,3.5,3.5,0,0,1,.676.949A3.473,3.473,0,0,1-1273.57,588.987Z" transform="translate(-254.781 -445.772)" fill="#ff2847"/>
      <path id="Caminho_1546" data-name="Caminho 1546" d="M-1068.021,587.472a2.4,2.4,0,0,1,2.313-1.57,2.335,2.335,0,0,1,2.292,1.929,2.384,2.384,0,0,1-1.41,2.611,2.359,2.359,0,0,1-2.928-.92c-.1-.152-.178-.312-.267-.469A3.415,3.415,0,0,1-1068.021,587.472Z" transform="translate(-445.871 -445.838)" fill="#ff2847"/>
      <path id="Caminho_1547" data-name="Caminho 1547" d="M-1226.96,604.775a3.473,3.473,0,0,0,0-1.585l4.055,0q0,.8,0,1.594Z" transform="translate(-301.39 -461.56)" fill="#050505"/>
      <path id="Caminho_1548" data-name="Caminho 1548" d="M-1107.812,603.194a3.415,3.415,0,0,0,0,1.581l-4.05.006q0-.8,0-1.594Z" transform="translate(-406.081 -461.56)" fill="#050505"/>
      <path id="Caminho_1549" data-name="Caminho 1549" d="M-1469.23,113.98c0,.79,0,.79-.8.79s-.793,0-.793-.805,0-.792.806-.792C-1469.23,113.173-1469.23,113.173-1469.23,113.98Z" transform="translate(-79.586 -15.87)" fill="#1d156d"/>
      <path id="Caminho_1550" data-name="Caminho 1550" d="M-1434.266,113.949c0,.785,0,.785-.771.785-.83,0-.83,0-.83-.814,0-.786,0-.786.772-.786C-1434.266,113.134-1434.266,113.134-1434.266,113.949Z" transform="translate(-111.384 -15.835)" fill="#1d156d"/>
      <path id="Caminho_1551" data-name="Caminho 1551" d="M-1399.23,114.01c0,.759,0,.759-.747.759-.849,0-.849,0-.849-.837,0-.759,0-.759.747-.759C-1399.23,113.173-1399.23,113.173-1399.23,114.01Z" transform="translate(-143.254 -15.87)" fill="#1d156d"/>
      <path id="Caminho_1552" data-name="Caminho 1552" d="M-1365.054,114.771c-.773-.005-.773-.005-.773-.781,0-.817,0-.817.827-.817.766,0,.766,0,.771.783C-1364.223,114.777-1364.223,114.777-1365.054,114.771Z" transform="translate(-175.088 -15.87)" fill="#1d156d"/>
      <path id="Caminho_1553" data-name="Caminho 1553" d="M-1155.784,552.544q.008-1.649.016-3.3a2.96,2.96,0,0,0,1.573.053q0,1.623,0,3.246Z" transform="translate(-366.132 -412.498)" fill="#050505"/>
      <path id="Caminho_1554" data-name="Caminho 1554" d="M-1170.005,502.921a2.96,2.96,0,0,1-1.572-.053,2.351,2.351,0,0,1-1.577-2.5,2.36,2.36,0,0,1,1.869-2.057,2.37,2.37,0,0,1,2.639,1.326,2.343,2.343,0,0,1-.721,2.864C-1169.574,502.652-1169.793,502.782-1170.005,502.921Z" transform="translate(-350.322 -366.12)" fill="#ff2847"/>
    </g>
  </svg>
  